<svg xmlns="http://www.w3.org/2000/svg" viewBox="0 0 52 52"><title>Twitter</title>
<style type="text/css">
	.twitter{fill:#FFFFFF;}
</style>
<g id="Layer_2" data-name="Layer 2"><g id="Layer_1-2" data-name="Layer 1"><path class="twitter social-icon" d="M26,0A26,26,0,1,0,52,26,26,26,0,0,0,26,0ZM36.34,20.7q0,.34,0,.69A15.17,15.17,0,0,1,13,34.17a10.83,10.83,0,0,0,1.27.07A10.7,10.7,0,0,0,20.9,32a5.34,5.34,0,0,1-5-3.7,5.35,5.35,0,0,0,2.41-.09A5.34,5.34,0,0,1,14,22.93v-.07a5.31,5.31,0,0,0,2.42.67,5.34,5.34,0,0,1-1.65-7.12A15.14,15.14,0,0,0,25.8,22a5.34,5.34,0,0,1,9.09-4.87,10.68,10.68,0,0,0,3.39-1.29,5.35,5.35,0,0,1-2.35,3A10.66,10.66,0,0,0,39,17.94,10.84,10.84,0,0,1,36.34,20.7Z"/></g></g></svg>