<?xml version="1.0" encoding="UTF-8"?>
<svg width="400px" height="400px" viewBox="0 0 400 400" version="1.1" xmlns="http://www.w3.org/2000/svg" xmlns:xlink="http://www.w3.org/1999/xlink">
    <!-- Generator: Sketch 46.2 (44496) - http://www.bohemiancoding.com/sketch -->
    <title>Combined Shape</title>
    <desc>Created with Sketch.</desc>
    <defs></defs>
    <g id="Page-1" stroke="none" stroke-width="1" fill="none" fill-rule="evenodd">
        <g id="amphitheater" fill-rule="nonzero" fill="#FFFFFF">
            <path d="M200,400 C89.54305,400 0,310.45695 0,200 C0,89.54305 89.54305,0 200,0 C310.45695,0 400,89.54305 400,200 C400,310.45695 310.45695,400 200,400 Z M110.231124,206.5 C111.708693,227.203466 120.189152,245.97002 133.316885,260.444046 L175.896539,217.864392 C173.427213,214.538138 171.630085,210.683035 170.706071,206.5 L110.231124,206.5 Z M110.110543,195.499986 L110.110543,195.5 L170.335251,195.5 C171.355173,188.719646 174.644311,182.682418 179.404616,178.186362 L136.972414,135.75416 C121.324571,151.107116 111.261236,172.131769 110.110543,195.499986 Z M289.768876,206.5 L229.293929,206.5 C228.445427,210.34119 226.860686,213.905856 224.695278,217.038423 L267.35349,259.696636 C280.099266,245.326661 288.316612,226.848899 289.768876,206.5 Z M289.889457,195.5 L289.889457,195.499986 C288.729846,171.950658 278.518906,150.781361 262.662754,135.398212 L220.221658,177.839309 C225.183372,182.369438 228.618347,188.543613 229.664749,195.5 L289.889457,195.5 Z M141.188724,268.128556 C155.785089,280.739945 174.476935,288.739666 195,289.863458 L195,229.585208 C190.995438,228.91337 187.259894,227.448175 183.960511,225.356769 L141.188724,268.128556 Z M259.567933,267.467428 L216.894592,224.794087 C213.660835,227.001818 209.97297,228.593421 206,229.399891 L206,289.803173 C226.485378,288.454817 245.098601,280.252324 259.567933,267.467428 Z" id="Combined-Shape"></path>
        </g>
    </g>
</svg>