<svg xmlns="http://www.w3.org/2000/svg" viewBox="0 0 153 122.4"><title>Asset 1</title><defs><style type="text/css"><![CDATA[ #arrowtail { fill: #ffffff; }]]></style></defs><g id="arrowtail" data-name="Layer 1"><path d="M91.8,0a7.34,7.34,0,0,1,5.43,2.22l53.55,53.55a7.77,7.77,0,0,1,0,10.87L97.23,120.18a7.68,7.68,0,0,1-10.87-10.87l40.51-40.47H7.65a7.38,7.38,0,0,1-5.4-2.23,7.65,7.65,0,0,1,0-10.82,7.43,7.43,0,0,1,5.42-2.25H126.88L86.37,13.08a7.42,7.42,0,0,1-2.22-5.43A7.47,7.47,0,0,1,91.8,0Z"/></g></svg>