<svg id="Layer_1" data-name="Layer 1" xmlns="http://www.w3.org/2000/svg" viewBox="0 0 360 149.78"><defs><style type="text/css"><![CDATA[ #Layer_1 { fill: #fff; }]]></style></defs><title>caa</title><path id="path2830" class="cls-1" d="M145.17,159.64c-1.81,0-3.64.05-5.45.18a74.92,74.92,0,1,0,69.18,113.61h63.51l13.28,32.45h27.86l13.28-32.45H390l13.5,32.45H430l-59.86-144H346L299.65,275.32,253.24,161.85H229.12l-38.17,91.06c-12.55,29.93-46.7,39.51-71.25,25.34a50.45,50.45,0,0,1,50.41-87.41,51,51,0,0,1,4.55,3l10.53-22.51c-.92-.59-1.89-1.12-2.84-1.67A74.19,74.19,0,0,0,145.17,159.64Zm95.92,37.22,21.29,52.08H219.44Zm117.07,0,21.65,52.08H336.87Z" transform="translate(-70 -159.64)"/></svg>