<?xml version="1.0" encoding="UTF-8"?>
<svg width="28px" height="21px" viewBox="0 0 28 21" version="1.1" xmlns="http://www.w3.org/2000/svg" xmlns:xlink="http://www.w3.org/1999/xlink">
    <!-- Generator: Sketch 46.2 (44496) - http://www.bohemiancoding.com/sketch -->
    <defs>
        <polygon id="path-1" points="0 0.000192124421 0 20.7737 27.3896853 20.7737 27.3896853 0.000192124421"></polygon>
    </defs>
    <g id="Page-1" stroke="none" stroke-width="1" fill="none" fill-rule="evenodd">
        <g>
            <mask id="mask-2" fill="#cccccc">
                <use xlink:href="#path-1"></use>
            </mask>
            <g id="Clip-2"></g>
            <path d="M25.8953,0.0023 C25.5293,0.0243 25.1853,0.1883 24.9373,0.4593 C19.9323,5.6963 14.2943,12.1503 9.2863,17.4523 L2.2853,12.1023 C1.6693,11.6213 0.7803,11.7313 0.2993,12.3473 C-0.1817,12.9633 -0.0717,13.8523 0.5443,14.3343 C0.5553,14.3413 0.5653,14.3493 0.5763,14.3573 L8.5933,20.4883 C9.1643,20.9193 9.9683,20.8563 10.4653,20.3403 C15.7443,14.8173 21.7703,7.8613 26.9713,2.4193 C27.5263,1.8683 27.5293,0.9733 26.9793,0.4183 C26.6943,0.1313 26.2993,-0.0197 25.8953,0.0023" id="Fill-1" fill="#cccccc" mask="url(#mask-2)"></path>
        </g>
    </g>
</svg>