<svg id="Layer_1" data-name="Layer 1" xmlns="http://www.w3.org/2000/svg" viewBox="0 0 11.17 17.84"><defs><style>.cls-1{fill:#fff;}</style></defs><title>download</title><path class="cls-1" d="M8.4,15.13l.06,0,.07,0,0,0h0l.08,0,.06,0h.42l.08,0,.06,0h0l0,0,.06,0,.07,0,.05,0L9.61,15l0,0,4.57-4.63A1,1,0,1,0,12.82,9L9.91,11.93l-.06-9.1a1,1,0,1,0-2,0h0l.06,9.1L5,9a1,1,0,1,0-1.38,1.4L8.26,15l0,0,.06.05Z" transform="translate(-3.33 -1.85)"/><rect class="cls-1" x="3.33" y="17.92" width="11.17" height="1.77" rx="0.89" ry="0.89" transform="translate(14.5 35.77) rotate(-180)"/><rect class="cls-1" x="2.49" y="16.91" width="3.46" height="1.77" rx="0.89" ry="0.89" transform="translate(18.69 11.73) rotate(90)"/><rect class="cls-1" x="11.89" y="16.91" width="3.46" height="1.77" rx="0.89" ry="0.89" transform="translate(28.08 2.33) rotate(90)"/></svg>