<svg xmlns="http://www.w3.org/2000/svg" viewBox="0 0 88.32 88.31"><title>Asset 1</title><style type="text/css">
	.external-icon{fill:#cccccc;}
</style><g id="Layer_2" data-name="Layer 2"><g id="Layer_1-2" data-name="Layer 1">
<path class="external-icon" d="M6,71.86A10.35,10.35,0,0,0,16.31,82.22l55.62.07A10.35,10.35,0,0,0,82.28,71.93l-.09-40.78h6.14V72A16.32,16.32,0,0,1,72,88.31l-56.36-.07A15.56,15.56,0,0,1,.08,72.68L0,16.4A16.32,16.32,0,0,1,16.32.08L57.46,0V6.14l-41.06,0A10.35,10.35,0,0,0,6,16.47Z"/>
<path class="external-icon external-icon-arrow" d="M88.16,2.06l0-.19-.07-.19,0-.11,0-.05a1.49,1.49,0,0,0-.1-.19l-.09-.15L87.69,1,87.58.89,87.44.74,87.32.62,87.15.49,87,.4,86.83.3,86.68.22l-.07,0-.13,0L86.32.1l-.21,0L86,0l-.22,0h-.1L68.55.1a2.58,2.58,0,1,0,0,5.16l10.85-.07-16.78,17a2.58,2.58,0,1,0,3.67,3.62h0l16.78-17,.07,10.85a2.58,2.58,0,1,0,5.16,0l-.1-17.08s0-.07,0-.11,0-.14,0-.21A1.72,1.72,0,0,0,88.16,2.06Z"/>
</g></g></svg>