<svg xmlns="http://www.w3.org/2000/svg" viewBox="0 0 60 60.01"><defs><style>.cls-1{fill:#d71c2f;}</style></defs><title>Asset 1</title><g id="Layer_2" data-name="Layer 2"><g id="Layer_1-2" data-name="Layer 1"><path class="cls-1" d="M0,27.84a7.28,7.28,0,0,0,.23-1.66,25.66,25.66,0,0,1,1.23-5.51,30.35,30.35,0,0,1,3.09-6.59A29,29,0,0,1,7.71,9.9a34.26,34.26,0,0,1,3.14-3,31.7,31.7,0,0,1,6.23-4A30,30,0,0,1,31.29,0,29.47,29.47,0,0,1,39,1.4a31,31,0,0,1,6.5,2.94c1.11.66,2.13,1.45,3.17,2.21a30.09,30.09,0,0,1,3.17,2.93,29.27,29.27,0,0,1,3.23,4.11,28.91,28.91,0,0,1,3.2,6.49,28.27,28.27,0,0,1,1.7,11,26.79,26.79,0,0,1-1.45,8.25,30.07,30.07,0,0,1-6.27,10.8,27.64,27.64,0,0,1-3.06,2.93c-.77.58-1.45,1.25-2.24,1.79a33.62,33.62,0,0,1-4.49,2.42,27.73,27.73,0,0,1-5.61,1.94,29.53,29.53,0,0,1-9.68.66,29.91,29.91,0,0,1-9.64-2.58q-1.74-.8-3.44-1.66A5.74,5.74,0,0,1,13,54.91c-.76-.63-1.5-1.27-2.28-1.87A30.36,30.36,0,0,1,1.73,40a28,28,0,0,1-1.64-7.6c0-.08,0-.17-.09-.21ZM52.46,49.28s-.11.06-.06.12.08,0,.11,0l0-.07ZM47,51.22l.55-.17a21.06,21.06,0,0,0,4.76-2,8.25,8.25,0,0,0,2.91-3.4c.21,0,.23-.21.31-.35a19.1,19.1,0,0,0,1.44-2.83.17.17,0,0,0,.08-.17.78.78,0,0,0,.17-.4,5.92,5.92,0,0,0,.5-1.26.32.32,0,0,0,.09-.25c.08-.06.08-.16.09-.25l.71-2a.57.57,0,0,0,.09-.33,21.28,21.28,0,0,0,.75-3.83,20.23,20.23,0,0,0,.26-3.06,26.72,26.72,0,0,0-.19-4.26c-.05,0-.09,0-.1,0a15.78,15.78,0,0,1-4.3,2.3.41.41,0,0,0-.33.47,36,36,0,0,1-.23,4.94c-.07.58-.14,1.16-.21,1.78A15.8,15.8,0,0,0,58.11,34a5.79,5.79,0,0,0,1-.8c.08-.09.15-.09.25,0s0,.16,0,.24l-.34.36c-.16.13-.32.26-.49.37a19.17,19.17,0,0,1-4.06,2.21.34.34,0,0,0-.25.29,32,32,0,0,1-1.86,6.44l-.21.43a.74.74,0,0,0,.49-.16,13.94,13.94,0,0,0,4.52-2.65c.13-.12.23-.19.37,0,0,.32-.36.4-.5.63a13.31,13.31,0,0,1-2.23,1.43,20.88,20.88,0,0,1-2.54,1.14.93.93,0,0,0-.61.54,28.16,28.16,0,0,1-1.47,2.65,34.3,34.3,0,0,1-2.75,3.53,2.42,2.42,0,0,0-.46.51s-.08,0,0,.06S46.93,51.22,47,51.22Zm-16,8a7.23,7.23,0,0,0,1.22-.56,1,1,0,0,0-1.26.52s-.08,0-.06.06Zm10.26-1.83c-1.1.29-2.22.5-3.34.68a17,17,0,0,0-2.34.35c-1.22.38-2.43.81-3.68,1.13a.2.2,0,0,0,.25.13c1.41-.21,2.83-.33,4.22-.66a25.65,25.65,0,0,0,4.93-1.57l.13-.07C41.33,57.31,41.27,57.35,41.21,57.38Zm-9-56.09a.28.28,0,0,0-.29,0l.23.06c.52.28,1.06.53,1.57.84A23.62,23.62,0,0,1,37.46,5c.11.1.2.23.39.15l1.93-.78A34.61,34.61,0,0,0,32.2,1.29ZM14,52.06l-.09,0s0,.05,0,.06c.09.21.32.25.47.39A28.08,28.08,0,0,0,17.76,55,37.24,37.24,0,0,0,23.4,57.9a2.42,2.42,0,0,0,1.19.17c-.45-.24-.81-.41-1.14-.62a23.82,23.82,0,0,1-5.19-4.37c-.11-.13-.2-.27-.39-.29C16.57,52.64,15.31,52.29,14,52.06ZM27.46.86a13.12,13.12,0,0,0-2.57,1.06A19,19,0,0,0,20.77,4.7c-.09.08-.37.18,0,.34a11.38,11.38,0,0,0,3,1,.28.28,0,0,0,.35-.19A14.14,14.14,0,0,1,27.51.93l.07-.06C27.55.82,27.5.84,27.46.86ZM7.79,49.54c-.06,0-.12-.06-.18,0l.11.09c.23.23.46.46.68.71.75.82,1.55,1.59,2.38,2.33.3.27.73.29,1,.52s.51.64.85.9a29.3,29.3,0,0,0,3.2,2,5.45,5.45,0,0,0,.9.42,24.72,24.72,0,0,0,4.5,1.17,2.39,2.39,0,0,0,.88.12c-.07-.19-.23-.21-.35-.26A31,31,0,0,1,17.12,55a29.62,29.62,0,0,1-3.68-2.91,1.66,1.66,0,0,0-.63-.37A20.91,20.91,0,0,1,9,50.19,7.71,7.71,0,0,0,7.79,49.54Zm4.59,1.67c.06,0,.12.07.18,0l-.08-.12c-.6-.67-1.22-1.32-1.78-2a25.25,25.25,0,0,1-2.6-4.05,2.64,2.64,0,0,0-1.35-1.32,11.91,11.91,0,0,1-4.11-2.62S2.58,41,2.51,41s0,.12,0,.17.07.21.11.31a25.8,25.8,0,0,0,2.73,5.06,9.29,9.29,0,0,0,3,2.9A19,19,0,0,0,12.38,51.21ZM7.25,43.59l0,.05s0-.06,0-.08a.62.62,0,0,0,0-.12,29.81,29.81,0,0,1-2-6.71c0-.23-.18-.3-.34-.37A12.31,12.31,0,0,1,.57,33.3s0,0-.1,0a30.82,30.82,0,0,0,1.16,5.41A5.77,5.77,0,0,0,3.08,41.1a13.51,13.51,0,0,0,3.33,2.15A2.66,2.66,0,0,0,7.25,43.59Zm44,.71-.67.21A48.38,48.38,0,0,1,43.7,46.1c-.18,0-.38,0-.47.25-.19.53-.47,1-.71,1.52A31.41,31.41,0,0,1,40,52.34c-.06.08-.17.15-.1.28h.08a51.86,51.86,0,0,0,6-1.11,1,1,0,0,0,.44-.3,30,30,0,0,0,2.69-3.15,17.73,17.73,0,0,0,2.2-3.71l0-.08ZM46.11,28c0,.69,0,1.39,0,2.08s0,.83.81.69A45.9,45.9,0,0,0,54.09,29c.25-.09.35-.19.33-.47,0-.51-.05-1-.09-1.54a32.4,32.4,0,0,0-1.12-6.38c-.07-.25-.14-.32-.38-.18a5.19,5.19,0,0,1-.64.31,37.28,37.28,0,0,1-6.31,2.05c-.18,0-.21.11-.21.27s.15.41.17.63C46,25.1,46.07,26.54,46.11,28Zm-26.25.32c.08-1.65.13-2.81.2-4,0-.31-.06-.39-.37-.42a42.8,42.8,0,0,1-7.55-1.43c-.33-.1-.42,0-.46.29a57.87,57.87,0,0,0-.52,7.39c0,.26.08.36.33.41a73.11,73.11,0,0,0,8,1.1c.28,0,.38,0,.38-.34C19.85,30.16,19.86,29,19.86,28.3Zm9-8.35h0c0-1.26,0-2.53,0-3.79,0-.32-.09-.41-.41-.41-2.25,0-4.5-.07-6.73-.29-.28,0-.32.09-.36.31-.33,1.91-.56,3.84-.74,5.77a11.17,11.17,0,0,1-.17,1.52c-.13.56-.14.62.42.67,2.54.23,5.09.33,7.65.35.28,0,.35-.09.34-.35C28.89,22.47,28.9,21.21,28.9,19.95ZM24.88,32v0c1.19,0,2.39,0,3.58,0,.35,0,.4-.12.4-.42,0-2.26,0-4.52,0-6.78,0-.38-.11-.45-.46-.45A74,74,0,0,1,20.72,24c-.36,0-.34.17-.35.39-.13,2.34-.2,4.68-.19,7,0,.27.11.31.34.32Zm-5-8.37c.25.07.2-.14.22-.3.16-1.4.19-2.81.47-4.2.23-1.13.33-2.28.52-3.41,0-.25,0-.34-.26-.37a33.62,33.62,0,0,1-6.48-1.22c-.27-.08-.38,0-.49.25a38.21,38.21,0,0,0-2,7.36c0,.24,0,.34.26.41.85.24,1.71.46,2.58.64C16.39,23.17,18.12,23.42,19.89,23.63Zm9.32-3.74h0c0,1.26,0,2.53,0,3.79,0,.3.05.41.38.4,2.54,0,5.08-.14,7.61-.33.24,0,.34-.08.32-.34a73.18,73.18,0,0,0-.89-7.64c-.06-.33-.21-.35-.47-.32-2.17.21-4.35.29-6.53.3-.37,0-.42.12-.42.45C29.22,17.42,29.21,18.66,29.21,19.89Zm4.16,12.16v0c1.33-.06,2.66-.13,4-.18.27,0,.31-.11.32-.35,0-2.37,0-4.75-.11-7.12,0-.25-.07-.33-.34-.3q-3.8.33-7.61.33c-.35,0-.43.1-.43.44q0,3.41,0,6.83c0,.35.11.4.42.4C30.85,32,32.11,32.05,33.37,32.05ZM11.21,30.84a.5.5,0,0,0,0,.11A48.89,48.89,0,0,0,11.77,38c0,.23.17.27.37.31a66.28,66.28,0,0,0,7.82,1.14c.24,0,.31,0,.28-.28-.23-2.28-.32-4.57-.36-6.86,0-.28-.1-.34-.35-.36-1.42-.12-2.84-.27-4.26-.46S12.55,31.11,11.21,30.84Zm17.63,5.27h0c0-1.14,0-2.28,0-3.41,0-.23,0-.35-.31-.35-2.68,0-5.35-.1-8-.28-.25,0-.34,0-.33.3a59.8,59.8,0,0,0,.44,6.84c0,.25.12.35.38.36,2.51.16,5,.27,7.53.27.26,0,.32-.08.32-.33C28.83,38.39,28.84,37.25,28.84,36.11Zm4.32,3.73v0c1.26-.07,2.52-.14,3.78-.2.24,0,.34-.09.36-.33.18-2.28.31-4.57.37-6.86,0-.25-.08-.29-.31-.28q-3.91.24-7.82.22c-.28,0-.38.06-.38.36q0,3.39,0,6.79c0,.27.06.35.34.35C30.72,39.84,31.94,39.85,33.16,39.85ZM38,27.44c0,1.56,0,2.69,0,3.81,0,.4.06.54.5.5,2.3-.19,4.59-.41,6.87-.75.23,0,.33-.1.34-.36a54.35,54.35,0,0,0-.35-7.48c0-.25-.11-.29-.33-.24a55.8,55.8,0,0,1-6.79,1c-.29,0-.38.11-.36.43C37.95,25.55,38,26.72,38,27.44Zm16.41,1.78h-.07a47.65,47.65,0,0,1-8,2c-.24,0-.23.17-.25.34a30.26,30.26,0,0,1-.4,4.58c-.16.73-.21,1.48-.32,2.22,0,.23,0,.29.25.25a46.24,46.24,0,0,0,8-2.14.57.57,0,0,0,.41-.54c.09-.87.22-1.73.3-2.6A33.63,33.63,0,0,0,54.42,29.22ZM38.1,23.66a62.4,62.4,0,0,0,6.9-1c.28-.06.28-.2.24-.41-.14-.79-.26-1.59-.41-2.38a33.39,33.39,0,0,0-1.41-5.08c-.06-.15-.05-.36-.34-.29a50.46,50.46,0,0,1-5.92.9c-.23,0-.27.12-.23.33a67.07,67.07,0,0,1,.91,7.73C37.84,23.63,37.91,23.72,38.1,23.66Zm7.7-1.22.45-.11a35.44,35.44,0,0,0,6.44-2.21c.28-.13.32-.26.23-.53A26.89,26.89,0,0,0,51.85,17a34,34,0,0,0-2.35-4.21c-.2-.3-.38-.37-.7-.22a24.28,24.28,0,0,1-4.92,1.64c-.25.06-.26.15-.18.37.34.91.63,1.84.88,2.77a40.92,40.92,0,0,1,1,4.69C45.56,22.21,45.47,22.46,45.79,22.44ZM37.87,35.92c-.08,1-.15,2.18-.25,3.32,0,.24,0,.33.27.29s.77-.07,1.16-.1c1.87-.16,3.72-.4,5.57-.69a.45.45,0,0,0,.44-.47c0-.34.1-.69.15-1a54,54,0,0,0,.47-5.64c0-.22,0-.34-.3-.29-2.33.37-4.68.6-7,.76-.29,0-.36.11-.36.39C38,33.58,37.91,34.7,37.87,35.92Zm-9-24.78h-.08c0-1.35,0-2.69,0-4,0-.24,0-.34-.32-.34a24.33,24.33,0,0,1-4.1-.31c-.14,0-.26,0-.33.15-.15.4-.39.76-.54,1.15a41.19,41.19,0,0,0-1.94,7c-.06.31,0,.41.32.43q3.32.26,6.65.27c.28,0,.34-.08.34-.35C28.89,13.77,28.9,12.45,28.9,11.13ZM43.45,45.81a44.91,44.91,0,0,0,7.91-1.92.44.44,0,0,0,.27-.23c.22-.47.47-.93.67-1.41a25.94,25.94,0,0,0,1.09-3.4,20,20,0,0,0,.46-2.19c-.71.27-1.39.51-2.07.72a43.57,43.57,0,0,1-6.09,1.47.52.52,0,0,0-.5.52,33.88,33.88,0,0,1-.75,3.36C44.15,43.75,43.82,44.74,43.45,45.81ZM23.78,6.35A13.67,13.67,0,0,1,20.4,5.26a.33.33,0,0,0-.43.09,28.52,28.52,0,0,0-3,3.4,20.59,20.59,0,0,0-2.16,3.64,7.31,7.31,0,0,1-.54,1.12c-.17.24-.13.26.1.33a36.94,36.94,0,0,0,6.52,1.23c.2,0,.29,0,.33-.24.11-.61.23-1.23.37-1.83A32.44,32.44,0,0,1,23.78,6.35Zm5.34,4.71h.08c0,1.33,0,2.66,0,4,0,.32.09.39.4.38,2,0,4-.1,6.07-.26.82-.06.82-.06.59-.82,0-.05,0-.11,0-.16A36.67,36.67,0,0,0,33.89,6.8a.43.43,0,0,0-.53-.3,30.07,30.07,0,0,1-3.94.26c-.29,0-.3.12-.3.35C29.13,8.42,29.12,9.74,29.12,11.05Zm-7.7,35.48c0-.13,0-.19,0-.26-.43-1.92-.68-3.86-1-5.8-.11-.65-.08-.65-.71-.71a59.14,59.14,0,0,1-7.4-1.08c-.27-.06-.38,0-.31.28a35.84,35.84,0,0,0,1.79,6.26.53.53,0,0,0,.47.38c1.58.28,3.17.52,4.77.69C19.77,46.39,20.59,46.46,21.42,46.53Zm3.33-6.37v-.06c-1.23-.07-2.47-.14-3.7-.22-.29,0-.35,0-.32.33a59.31,59.31,0,0,0,1,6,.35.35,0,0,0,.38.33c2.16.14,4.33.19,6.49.22.28,0,.35-.07.35-.35q0-3-.06-6c0-.28-.08-.35-.35-.34C27.25,40.17,26,40.17,24.75,40.17Zm4.41,3.29h0q0,1.5,0,3c0,.18,0,.36.26.35,2.16,0,4.33-.05,6.49-.21.12,0,.24,0,.25-.16s.18-.48.23-.74c.32-1.79.56-3.59.76-5.4,0-.35,0-.41-.37-.39-2.44.16-4.88.25-7.32.24-.31,0-.36.1-.35.38C29.18,41.51,29.17,42.48,29.17,43.45ZM37,15.06l.32,0c1.85-.18,3.68-.48,5.51-.83.27-.05.3-.13.2-.37-.16-.39-.39-.75-.57-1.13A22.75,22.75,0,0,0,38.3,6.34c-.18-.19-.37-.38-.54-.58a.33.33,0,0,0-.4-.1,22.32,22.32,0,0,1-3,.69c-.18,0-.27.06-.17.29a42.59,42.59,0,0,1,2.6,8.2C36.79,15,36.83,15.11,37,15.06Zm-25.6,7.41c0-.23-.14-.24-.28-.28a19.78,19.78,0,0,1-4.47-2c-.35-.21-.41-.1-.49.21A38.24,38.24,0,0,0,5,28.4c0,.29.15.35.34.43a35.21,35.21,0,0,0,5.12,1.55c.24.06.28,0,.28-.23,0-.85,0-1.69.07-2.54a20,20,0,0,1,.22-2.73C11.22,24.08,11.23,23.26,11.43,22.47ZM30,.36a39.22,39.22,0,0,1,8,2.73c.65.31,1.3.63,1.93,1a.45.45,0,0,0,.53,0,7.91,7.91,0,0,0,1.2-.9c.09-.09.18-.24.33-.06s0,.22-.12.29a8.77,8.77,0,0,1-1.34,1l.53.32a31.84,31.84,0,0,1,5.48,4.15c1,.91,1.77,2,2.66,3,.11.12.17.27.39.14a9.53,9.53,0,0,0,2.15-1.55c.21-.22.27-.36,0-.62a32.26,32.26,0,0,0-3.06-2.86,30.48,30.48,0,0,0-6.23-3.86A29.55,29.55,0,0,0,36,.94,26.76,26.76,0,0,0,30,.36Zm7.32,46.16c1.84-.13,3.67-.35,5.5-.59a.41.41,0,0,0,.38-.31,40,40,0,0,0,1.71-6.34c0-.25,0-.27-.25-.23-2.23.38-4.48.63-6.74.79-.29,0-.37.14-.39.4-.16,1.9-.45,3.77-.78,5.65C36.62,46.56,36.62,46.56,37.29,46.51ZM49.06,12.15a.53.53,0,0,1-.32-.24,26.6,26.6,0,0,0-3.27-3.53A35.32,35.32,0,0,0,40.39,4.7a.46.46,0,0,0-.5,0c-.55.26-1.11.49-1.68.7-.25.09-.25.16-.07.35.56.59,1.13,1.18,1.63,1.82a28.1,28.1,0,0,1,3.56,6.16c.13.3.26.34.55.26A25.3,25.3,0,0,0,49.06,12.15ZM11.43,38c-.14-1-.29-1.88-.42-2.81a34.76,34.76,0,0,1-.23-4.11.32.32,0,0,0-.29-.36,32,32,0,0,1-5.21-1.56c-.23-.1-.28,0-.28.2A40.49,40.49,0,0,0,5.43,36a.56.56,0,0,0,.38.48,27.49,27.49,0,0,0,3.57,1.24c.6.17,1.21.31,1.81.47C11.37,38.19,11.51,38.2,11.43,38ZM56.91,17.52A11.88,11.88,0,0,1,53.6,20c-.2.12-.18.22-.13.4a31.65,31.65,0,0,1,.9,4.18c.18,1.27.29,2.54.35,3.81,0,.11-.09.35.21.24a16.19,16.19,0,0,0,4.2-2.23.61.61,0,0,0,.25-.68A25.85,25.85,0,0,0,58,20.35C57.68,19.42,57.36,18.48,56.91,17.52ZM11.4,21.92c.1,0,.11,0,.16-.3a35.28,35.28,0,0,1,2-7.36c.1-.24.06-.32-.18-.41a13.66,13.66,0,0,1-3.24-1.57c-.24-.17-.27,0-.36.14a34.31,34.31,0,0,0-2,3.6A20.32,20.32,0,0,0,6.5,19.36a.38.38,0,0,0,.21.53A23.39,23.39,0,0,0,11,21.82C11.1,21.86,11.24,21.88,11.4,21.92Zm2.64,24c0,.33.27.51.38.75A22.29,22.29,0,0,0,18,52.26a.87.87,0,0,0,.59.33c.9.1,1.79.22,2.68.31s1.5.12,2.26.18a.59.59,0,0,0,0-.13,32.88,32.88,0,0,1-1.91-5.83c-.05-.23-.17-.27-.37-.28-1.48-.11-3-.27-4.42-.48C15.88,46.22,15,46.07,14,45.92Zm11.33,1.19v0c-1-.05-2.05-.08-3.07-.17-.41,0-.47.07-.36.44a26.4,26.4,0,0,0,1.92,5.5.46.46,0,0,0,.44.28c1.44.07,2.88.11,4.32.14.35,0,.4-.11.39-.42q-.07-2.68-.1-5.37c0-.3-.1-.37-.38-.36C27.48,47.12,26.43,47.11,25.38,47.11ZM13.43,45.4c0-.13-.09-.26-.13-.39a31.57,31.57,0,0,1-1.62-5.79c-.09-.5-.24-.8-.79-.82a3.6,3.6,0,0,1-.8-.2,30.24,30.24,0,0,1-4.47-1.51.46.46,0,0,0,0,.12,29.14,29.14,0,0,0,2.11,6.85.42.42,0,0,0,.25.25,34.69,34.69,0,0,0,4.94,1.43A.92.92,0,0,0,13.43,45.4Zm15.8,4.78h.1c0,.92,0,1.83,0,2.75,0,.25.06.33.33.33q2.14-.07,4.29-.11a.5.5,0,0,0,.54-.39,42.74,42.74,0,0,0,1.58-5.51c.05-.23,0-.35-.26-.33-2.08.15-4.16.19-6.24.18-.3,0-.33.12-.33.37C29.24,48.38,29.23,49.28,29.23,50.18ZM3.29,17.09a34.25,34.25,0,0,0-1.86,4.79,20.46,20.46,0,0,0-.79,3.65.61.61,0,0,0,.15.52A6.18,6.18,0,0,0,2.1,27.14a14.44,14.44,0,0,0,2.27,1.29c.19.09.27.08.27-.16,0-.52.1-1,.15-1.56A38.12,38.12,0,0,1,6,20.13a.41.41,0,0,0-.17-.52,8.94,8.94,0,0,1-1.94-1.74C3.66,17.62,3.48,17.36,3.29,17.09ZM43,46.22l-1,.13c-1.71.23-3.42.4-5.13.52-.14,0-.34,0-.36.18a8.62,8.62,0,0,1-.32,1.05,36.54,36.54,0,0,1-1.37,4.66c0,.1-.11.19,0,.33,1.42-.07,2.84-.2,4.26-.35a.49.49,0,0,0,.3-.19,11.26,11.26,0,0,0,1.47-2.1C41.63,49.13,42.21,47.68,43,46.22ZM53.36,19.75l.11-.06a12.76,12.76,0,0,0,3.11-2.26.41.41,0,0,0,.05-.55A25.86,25.86,0,0,0,55,14.06c-.8-1.17-1.59-2.33-2.49-3.43-.22-.26-.36-.29-.59,0a7.67,7.67,0,0,1-2.07,1.52c-.28.15-.34.24-.14.53a30.24,30.24,0,0,1,3,5.68c.16.4.28.81.43,1.21C53.24,19.61,53.21,19.75,53.36,19.75ZM18.79,4.14l-.2.1c-.63.39-1.27.78-1.9,1.19a24.9,24.9,0,0,0-2.6,2.06,28.25,28.25,0,0,0-3.76,4.14c-.15.2-.16.3.07.44a17.06,17.06,0,0,0,3.18,1.52c.14.05.26.08.32-.11a7,7,0,0,1,.5-.94,22.65,22.65,0,0,1,3.28-5.17c.52-.58,1-1.19,1.55-1.74.2-.2.53-.38.55-.6s-.4-.34-.59-.55S18.93,4.26,18.79,4.14ZM.54,26.3A30.13,30.13,0,0,0,.4,32.17,1.2,1.2,0,0,0,.72,33a12.92,12.92,0,0,0,3.2,2.54,3.91,3.91,0,0,0,1.2.53c0-.22,0-.41-.07-.6-.14-.92-.24-1.84-.35-2.75a21.68,21.68,0,0,1-.08-3.45.47.47,0,0,0-.34-.52A13.6,13.6,0,0,1,.54,26.3ZM17.69,52.43a1.65,1.65,0,0,0-.29-.37,1.26,1.26,0,0,1-.31-.32,32.7,32.7,0,0,1-3.32-5.63.58.58,0,0,0-.45-.36,37.85,37.85,0,0,1-3.9-1l-1.27-.44a1.17,1.17,0,0,0,0,.17l.26.52a25.84,25.84,0,0,0,4.39,6,2.31,2.31,0,0,0,1.31.72l.69.15A28.23,28.23,0,0,0,17.69,52.43ZM8.21,9.93a3.43,3.43,0,0,0-.44.37,33.28,33.28,0,0,0-4.19,6.16.41.41,0,0,0,0,.43,8.24,8.24,0,0,0,2.55,2.6l.09-.24a22.3,22.3,0,0,1,1.91-4.57c.48-.81.9-1.66,1.43-2.44.14-.21.14-.33-.06-.51A4.18,4.18,0,0,1,8.21,9.93ZM52.39,49.46c0-.09-.09-.07-.13-.05a3.21,3.21,0,0,0-.38.17,19.12,19.12,0,0,1-4.69,1.9,4,4,0,0,0-1.73,1,28.14,28.14,0,0,1-4.76,3.47c-1.18.71-2.44,1.27-3.66,1.9a22.79,22.79,0,0,0,3.35-.59,17.66,17.66,0,0,0,4.75-1.72c.81-.48,1.6-1,2.36-1.55.24-.18.38-.5.62-.59a4.08,4.08,0,0,0,1-.71,41.31,41.31,0,0,0,3.07-3C52.32,49.62,52.42,49.55,52.39,49.46ZM18.56,3.92a5.56,5.56,0,0,1-.45-.75C18,2.9,17.9,2.92,17.66,3a21.54,21.54,0,0,0-3.61,2A27.17,27.17,0,0,0,8.67,9.38a.46.46,0,0,0-.11.55,4.35,4.35,0,0,0,1.2,1.62c.14.12.2.07.29-.05A17.71,17.71,0,0,1,11.33,9.9,24.33,24.33,0,0,1,14.14,7,23.19,23.19,0,0,1,18.56,3.92ZM45.51,52a2.75,2.75,0,0,0-.33,0,31.45,31.45,0,0,1-4.7.84A2.46,2.46,0,0,0,38.59,54a12.18,12.18,0,0,1-2.24,2.28c-.82.64-1.62,1.32-2.5,1.9A6.29,6.29,0,0,0,35.73,58a23.89,23.89,0,0,0,4-1.83,26.7,26.7,0,0,0,5-3.45Zm-27,.91c.11.14.17.23.25.3A23.78,23.78,0,0,0,20.71,55a26.17,26.17,0,0,0,4.24,2.9,4.91,4.91,0,0,0,2.13.35c-.22-.21-.38-.34-.51-.48a17.1,17.1,0,0,1-2.63-4.07.5.5,0,0,0-.49-.34c-.43,0-.86-.06-1.29-.1C21,53.2,19.79,53.07,18.54,52.9Zm5.6.53a17.79,17.79,0,0,0,2.53,4,2,2,0,0,0,2.06.89.79.79,0,0,1,.25,0c.2,0,.26,0,.25-.25-.07-1.41-.14-2.82-.2-4.24,0-.18,0-.27-.26-.28C27.26,53.55,25.74,53.52,24.14,53.43Zm10,.14H29.63c-.25,0-.3.1-.28.32,0,.62,0,1.25.08,1.87s.08,1.52.12,2.29c0,.15,0,.28.23.3,1.37.12,1.53.05,2.32-1.09l.17-.24A16.21,16.21,0,0,0,34.14,53.57ZM28.55.6A7.88,7.88,0,0,0,26.6,2.31a15,15,0,0,0-2.2,3.52c-.12.25,0,.3.19.34a30.27,30.27,0,0,0,3.86.28c.3,0,.33-.12.32-.36,0-.78,0-1.56-.06-2.33C28.68,2.71,28.67,1.68,28.55.6Zm.39,0a.86.86,0,0,0,0,.17c.1,1.79.18,3.58.19,5.37,0,.24.11.27.3.27a35.07,35.07,0,0,0,3.9-.25c.22,0,.24-.08.16-.28a10.2,10.2,0,0,0-.62-1,14.86,14.86,0,0,0-2-2.8A9.84,9.84,0,0,0,28.94.64Zm10,52.42c-1.41.18-2.71.27-4,.34a.49.49,0,0,0-.51.36A17.42,17.42,0,0,1,31.91,58c0,.06-.18.11-.12.22a2.76,2.76,0,0,0,2-.52c.7-.51,1.38-1,2.06-1.56A18.52,18.52,0,0,0,38.93,53.06ZM37.28,5.36C36.24,4,31.15.88,30,1a16.73,16.73,0,0,1,3.58,4.58c.33.55.3.58.93.47A22.1,22.1,0,0,0,37.28,5.36ZM26.49.61a5.14,5.14,0,0,0-.65,0,29.75,29.75,0,0,0-7,1.89c-.65.27-.65.27-.25.89.16.25.3.33.59.14a15.22,15.22,0,0,1,2-1,25.16,25.16,0,0,1,2.57-1.05C24.65,1.18,25.51.9,26.49.61ZM19.06,3.94a3.64,3.64,0,0,0,.3.28c.92.67.58.7,1.48,0A19.25,19.25,0,0,1,24,2.06c.29-.14.57-.32.85-.48l0-.1A30.53,30.53,0,0,0,19.06,3.94Zm8,55.56c-1.29-.28-2.44-1-3.75-1.17s-2.62-.42-3.92-.63A27.26,27.26,0,0,0,27.07,59.5Zm2.62.06a3.1,3.1,0,0,0,1.24-.91h-.49C29.53,58.66,29.53,58.66,29.69,59.56ZM28,58.65a5.86,5.86,0,0,0,1.35.92c0-.92,0-.92-.86-.92Zm-1.63,0,1.81.67A1.62,1.62,0,0,0,26.34,58.63Zm7.81-.08a2.47,2.47,0,0,0-2,.55A13.81,13.81,0,0,0,34.15,58.54Z"/></g></g></svg>