<?xml version="1.0" encoding="utf-8"?>
<svg version="1.1" id="Layer_1" xmlns="http://www.w3.org/2000/svg" xmlns:xlink="http://www.w3.org/1999/xlink" x="0px" y="0px"
	 viewBox="0 0 53.5 52.9" style="enable-background:new 0 0 53.5 52.9;" xml:space="preserve">
<style type="text/css">
	.st0{fill:#FFFFFF;}
</style>
<g>
	<circle class="st0 social-icon" cx="26.8" cy="26.5" r="4.3"/>
	<path class="st0 social-icon" d="M36.9,18.8c-0.2-0.6-0.5-1-1-1.5s-0.9-0.7-1.5-1c-0.5-0.2-1.1-0.4-2.4-0.4c-1.4-0.1-1.8-0.1-5.3-0.1
		s-3.9,0-5.3,0.1c-1.3,0.1-2,0.3-2.4,0.4c-0.6,0.2-1,0.5-1.5,1s-0.7,0.9-1,1.5c-0.2,0.5-0.4,1.1-0.4,2.4C16,22.6,16,23,16,26.5
		s0,3.9,0.1,5.3c0.1,1.3,0.3,2,0.4,2.4c0.2,0.6,0.5,1,1,1.5s0.9,0.7,1.5,1c0.5,0.2,1.1,0.4,2.4,0.4c1.4,0.1,1.8,0.1,5.3,0.1
		s3.9,0,5.3-0.1c1.3-0.1,2-0.3,2.4-0.4c0.6-0.2,1-0.5,1.5-1s0.7-0.9,1-1.5c0.2-0.5,0.4-1.1,0.4-2.4c0.1-1.4,0.1-1.8,0.1-5.3
		s0-3.9-0.1-5.3C37.3,20,37.1,19.3,36.9,18.8z M26.8,33.2c-3.7,0-6.7-3-6.7-6.7s3-6.7,6.7-6.7s6.7,3,6.7,6.7S30.5,33.2,26.8,33.2z
		 M33.7,21.1c-0.9,0-1.6-0.7-1.6-1.6s0.7-1.6,1.6-1.6c0.9,0,1.6,0.7,1.6,1.6S34.6,21.1,33.7,21.1z"/>
	<path class="st0 social-icon" d="M26.7,0.5c-14.4,0-26,11.6-26,26s11.6,26,26,26s26-11.6,26-26S41.1,0.5,26.7,0.5z M39.7,31.9
		c-0.1,1.4-0.3,2.3-0.6,3.2c-0.3,0.9-0.8,1.6-1.5,2.3s-1.5,1.2-2.3,1.5s-1.8,0.5-3.2,0.6c-1.4,0.1-1.8,0.1-5.4,0.1
		c-3.5,0-4,0-5.4-0.1s-2.3-0.3-3.2-0.6c-0.9-0.3-1.6-0.8-2.3-1.5s-1.2-1.5-1.5-2.3s-0.5-1.8-0.6-3.2c-0.1-1.4-0.1-1.8-0.1-5.4
		c0-3.5,0-4,0.1-5.4s0.3-2.3,0.6-3.2c0.3-0.9,0.8-1.6,1.5-2.3s1.5-1.2,2.3-1.5s1.8-0.5,3.2-0.6c1.4-0.1,1.8-0.1,5.4-0.1
		c3.5,0,4,0,5.4,0.1c1.4,0.1,2.3,0.3,3.2,0.6s1.6,0.8,2.3,1.5s1.2,1.5,1.5,2.3s0.5,1.8,0.6,3.2c0.1,1.4,0.1,1.8,0.1,5.4
		C39.8,30,39.8,30.5,39.7,31.9z"/>
</g>
</svg>
