<?xml version="1.0" encoding="iso-8859-1"?>
<!-- Generator: Adobe Illustrator 16.0.0, SVG Export Plug-In . SVG Version: 6.00 Build 0)  -->
<!DOCTYPE svg PUBLIC "-//W3C//DTD SVG 1.1//EN" "http://www.w3.org/Graphics/SVG/1.1/DTD/svg11.dtd">
<svg xmlns="http://www.w3.org/2000/svg" xmlns:xlink="http://www.w3.org/1999/xlink" version="1.1" id="Capa_1" x="0px" y="0px" width="512px" height="512px" viewBox="0 0 554.625 554.625" style="enable-background:new 0 0 554.625 554.625;" xml:space="preserve">
<g>
	<g>
		<circle cx="439.875" cy="267.75" r="19.125" fill="#FFFFFF"/>
		<path d="M497.25,191.25H459V57.375c0-21.038-17.213-38.25-38.25-38.25H133.875c-21.038,0-38.25,17.212-38.25,38.25V191.25h-38.25    C24.862,191.25,0,216.112,0,248.625V420.75c0,32.513,24.862,57.375,57.375,57.375h38.25v19.125c0,21.037,17.212,38.25,38.25,38.25    H420.75c21.037,0,38.25-17.213,38.25-38.25v-19.125h38.25c32.513,0,57.375-24.862,57.375-57.375V248.625    C554.625,216.112,529.763,191.25,497.25,191.25z M114.75,57.375c0-9.562,7.65-19.125,19.125-19.125H420.75    c9.562,0,19.125,7.65,19.125,19.125V191.25H114.75V57.375z M439.875,497.25c0,9.562-7.65,19.125-19.125,19.125H133.875    c-9.562,0-19.125-7.65-19.125-19.125V363.375h325.125V497.25z M535.5,420.75c0,21.037-17.213,38.25-38.25,38.25H459V344.25H95.625    V459h-38.25c-21.038,0-38.25-17.213-38.25-38.25V248.625c0-21.038,17.212-38.25,38.25-38.25H497.25    c21.037,0,38.25,17.212,38.25,38.25V420.75z" fill="#FFFFFF"/>
	</g>
</g>
<g>
</g>
<g>
</g>
<g>
</g>
<g>
</g>
<g>
</g>
<g>
</g>
<g>
</g>
<g>
</g>
<g>
</g>
<g>
</g>
<g>
</g>
<g>
</g>
<g>
</g>
<g>
</g>
<g>
</g>
</svg>
