<?xml version="1.0" encoding="UTF-8"?>
<svg width="405px" height="405px" viewBox="0 0 405 405" version="1.1" xmlns="http://www.w3.org/2000/svg" xmlns:xlink="http://www.w3.org/1999/xlink">
    <!-- Generator: Sketch 46.2 (44496) - http://www.bohemiancoding.com/sketch -->
    <title>Page 1</title>
    <desc>Created with Sketch.</desc>
    <defs>
        <path d="M0,202.5 C0,90.7 90.701,0 202.5,0 C314.3,0 405,90.7 405,202.5 C405,314.299 314.3,405 202.5,405 C90.701,405 0,314.299 0,202.5 Z M203.7,244.9 C203.7,246.5 205,247.8 206.5,248 L278,248 C292.2,248 303.7,236.5 303.8,222.201 C303.8,207.9 292.3,196.4 278,196.4 C274.4,196.4 271.1,197.101 268,198.4 C266,175.1 246.5,156.9 222.7,156.9 C216.899,156.9 211.2,158.1 206.2,160 C204.201,160.7 203.7,161.5 203.7,163 L203.7,244.9 Z M165.7,245.6 C165.8,246.9 168.5,247.9 171.899,247.9 C175.2,247.9 177.9,246.9 178,245.6 L181.5,223.9 L177.9,177.4 C177.8,176.1 175.2,175.1 171.8,175.1 C168.5,175.1 165.8,176.1 165.7,177.4 L162.5,223.9 L165.7,245.6 Z M133.8,246.3 C133.9,247.2 135.5,247.9 137.4,247.9 C139.3,247.9 140.9,247.2 141,246.3 L145.2,223.9 L141,189.3 C140.9,188.4 139.3,187.7 137.4,187.7 C135.5,187.7 133.9,188.4 133.8,189.3 L130.1,223.9 L133.8,246.3 Z M102.4,242.299 C102.5,242.7 103.2,243.1 104.1,243.1 C104.9,243.1 105.7,242.8 105.8,242.299 L110.5,223.9 L105.8,205.1 C105.7,204.7 105,204.3 104.1,204.3 C103.2,204.3 102.5,204.6 102.4,205.1 L98.3,223.9 L102.4,242.299 Z" id="path-1"></path>
    </defs>
    <g id="Page-1" stroke="none" stroke-width="1" fill="none" fill-rule="evenodd">
        <g>
            <mask id="mask-2" fill="white">
                <use xlink:href="#path-1"></use>
            </mask>
            <g id="Clip-2"></g>
            <polygon id="Fill-1" fill="#ffffff" mask="url(#mask-2)" points="-5 410 410 410 410 -5 -5 -5"></polygon>
        </g>
    </g>
</svg>