<svg xmlns="http://www.w3.org/2000/svg" viewBox="0 0 52 52"><title>Youtube</title>
<style type="text/css">
	.youtube{fill:#FFFFFF;}
</style>
<g id="Layer_2" data-name="Layer 2"><g id="Layer_1-2" data-name="Layer 1"><path class="youtube social-icon" d="M26,0A26,26,0,1,0,52,26,26,26,0,0,0,26,0ZM39,27a39.38,39.38,0,0,1-.26,4.21,5.63,5.63,0,0,1-1,2.58,3.72,3.72,0,0,1-2.61,1.1c-3.64.26-9.1.27-9.1.27s-6.76-.06-8.84-.26a4.41,4.41,0,0,1-2.87-1.11,5.62,5.62,0,0,1-1-2.58A39.32,39.32,0,0,1,13,27V25a39.33,39.33,0,0,1,.26-4.21,5.62,5.62,0,0,1,1-2.58,3.72,3.72,0,0,1,2.61-1.1c3.64-.26,9.1-.26,9.1-.26h0s5.46,0,9.1.26a3.72,3.72,0,0,1,2.61,1.1,5.63,5.63,0,0,1,1,2.58A39.39,39.39,0,0,1,39,25Z"/><polygon class="youtube social-icon" points="23.32 29.37 30.34 25.73 23.32 22.07 23.32 29.37"/></g></g></svg>