<?xml version="1.0" encoding="utf-8"?>
<svg 
 xmlns="http://www.w3.org/2000/svg"
 xmlns:xlink="http://www.w3.org/1999/xlink"
 width="60px" height="36px">
<path fill-rule="evenodd"  fill="rgb(255, 255, 255)"
 d="M2.0,0.0 L57.999,0.0 C59.104,0.0 59.999,0.895 59.999,2.0 C59.999,3.104 59.104,4.0 57.999,4.0 L2.0,4.0 C0.895,4.0 0.0,3.104 0.0,2.0 C0.0,0.895 0.895,0.0 2.0,0.0 Z"/>
<path fill-rule="evenodd"  fill="rgb(255, 255, 255)"
 d="M2.0,31.999 L57.999,31.999 C59.104,31.999 59.999,32.895 59.999,34.0 C59.999,35.104 59.104,36.0 57.999,36.0 L2.0,36.0 C0.895,36.0 0.0,35.104 0.0,34.0 C0.0,32.895 0.895,31.999 2.0,31.999 Z"/>
<path fill-rule="evenodd"  fill="rgb(255, 255, 255)"
 d="M2.0,15.999 L57.999,15.999 C59.104,15.999 59.999,16.895 59.999,18.0 C59.999,19.104 59.104,20.0 57.999,20.0 L2.0,20.0 C0.895,20.0 0.0,19.104 0.0,18.0 C0.0,16.895 0.895,15.999 2.0,15.999 Z"/>
</svg>